<?xml version="1.0" standalone="no"?>
<!DOCTYPE svg PUBLIC "-//W3C//DTD SVG 20010904//EN"
 "http://www.w3.org/TR/2001/REC-SVG-20010904/DTD/svg10.dtd">
<svg version="1.0" xmlns="http://www.w3.org/2000/svg"
 width="512.000000pt" height="512.000000pt" viewBox="0 0 512.000000 512.000000"
 preserveAspectRatio="xMidYMid meet">

<g transform="translate(0.000000,512.000000) scale(0.100000,-0.100000)"
fill="" stroke="none">
<path d="M3295 5000 c-930 -75 -1643 -371 -2204 -915 -363 -352 -622 -778
-790 -1297 -225 -697 -249 -1535 -68 -2423 l23 -109 109 -23 c888 -181 1726
-157 2423 68 494 160 890 394 1241 734 363 352 622 778 790 1297 225 697 249
1535 68 2423 l-23 109 -109 23 c-173 35 -424 73 -620 94 -208 22 -672 32 -840
19z m505 -410 c164 -11 419 -40 437 -49 8 -4 -147 -166 -411 -430 l-423 -423
-563 10 c-309 5 -577 6 -594 2 -110 -25 -177 -119 -161 -226 9 -60 56 -121
113 -147 44 -19 70 -21 419 -26 204 -3 374 -8 377 -11 3 -3 -183 -194 -412
-423 l-417 -417 -568 10 c-420 8 -578 8 -610 -1 -59 -16 -122 -82 -135 -145
-14 -64 5 -135 48 -179 64 -66 61 -65 486 -72 l386 -6 -594 -594 c-471 -471
-594 -590 -600 -576 -4 10 -14 77 -22 148 -104 868 32 1636 397 2240 116 193
232 341 392 500 492 492 1134 761 1955 818 105 8 366 6 500 -3z m760 -496 c71
-546 38 -1090 -95 -1554 -198 -690 -606 -1234 -1190 -1587 -604 -365 -1372
-501 -2240 -397 -71 8 -138 18 -148 22 -14 6 105 129 576 600 l594 594 7 -382
c7 -413 9 -425 64 -484 100 -106 294 -57 332 84 8 28 8 207 0 607 l-10 568
417 417 c229 229 419 415 422 412 3 -2 8 -174 11 -382 6 -402 7 -406 59 -466
29 -33 93 -59 146 -59 81 0 143 39 180 113 17 32 17 72 11 619 l-8 584 423
423 c233 233 425 422 427 420 2 -2 12 -71 22 -152z"/>
</g>
</svg>
